<?xml version="1.0" encoding="UTF-8"?>
<svg version="1.1" xmlns="http://www.w3.org/2000/svg" width="500" height="500">
<path d="M0 0 C2.04601587 -0.01634505 4.09198003 -0.04333925 6.13769531 -0.08203125 C26.32563886 -0.46150387 44.25104013 1.39127245 59.7421875 15.35009766 C61.48711737 17.29755583 63.10605117 19.30701771 64.7421875 21.35009766 C65.66136706 22.32601669 66.59307583 23.29096061 67.5546875 24.22509766 C68.2765625 24.92634766 68.9984375 25.62759766 69.7421875 26.35009766 C66.74982703 32.77032645 62.26182937 37.28642216 56.39453125 41.15087891 C54.46067967 42.46415392 54.46067967 42.46415392 52.2421875 45.16259766 C49.7421875 47.35009766 49.7421875 47.35009766 45.9296875 47.66259766 C44.8778125 47.55947266 43.8259375 47.45634766 42.7421875 47.35009766 C42.7421875 46.69009766 42.7421875 46.03009766 42.7421875 45.35009766 C41.65550781 45.06005859 41.65550781 45.06005859 40.546875 44.76416016 C39.58007812 44.50376953 38.61328125 44.24337891 37.6171875 43.97509766 C36.66585937 43.71986328 35.71453125 43.46462891 34.734375 43.20166016 C31.7421875 42.35009766 31.7421875 42.35009766 29.12597656 41.32006836 C24.88121655 40.10329841 21.00300408 40.00745279 16.609375 39.97900391 C15.73628693 39.96997543 14.86319885 39.96094696 13.96365356 39.9516449 C12.11968387 39.93718122 10.27566332 39.92826534 8.43164062 39.92456055 C5.64622552 39.91272108 2.86306966 39.86354741 0.078125 39.81298828 C-14.42112624 39.68025529 -25.31613242 42.19994337 -36.2578125 52.35009766 C-38.58058666 54.95923636 -38.58058666 54.95923636 -40.2578125 57.35009766 C-41.8828125 59.16259766 -41.8828125 59.16259766 -43.2578125 60.35009766 C-43.9178125 60.35009766 -44.5778125 60.35009766 -45.2578125 60.35009766 C-45.2165625 61.29884766 -45.1753125 62.24759766 -45.1328125 63.22509766 C-45.2578125 66.35009766 -45.2578125 66.35009766 -47.2578125 68.35009766 C-47.97189584 70.33366249 -48.64398992 72.33325203 -49.2578125 74.35009766 C-49.9178125 74.35009766 -50.5778125 74.35009766 -51.2578125 74.35009766 C-51.2371875 75.31947266 -51.2165625 76.28884766 -51.1953125 77.28759766 C-51.2578125 80.35009766 -51.2578125 80.35009766 -52.2578125 81.35009766 C-52.41810938 84.30539269 -52.51738578 87.23992223 -52.57421875 90.19775391 C-52.59499985 91.08418076 -52.61578094 91.9706076 -52.63719177 92.88389587 C-52.7027865 95.72671466 -52.76161802 98.56962882 -52.8203125 101.41259766 C-52.8634883 103.33513372 -52.90710228 105.25766 -52.95117188 107.18017578 C-53.05847793 111.90338434 -53.15971701 116.62668919 -53.2578125 121.35009766 C-52.5978125 121.35009766 -51.9378125 121.35009766 -51.2578125 121.35009766 C-50.13480558 123.59611149 -50.16249144 124.9237663 -50.0703125 127.41259766 C-49.59646935 132.38393511 -47.57492679 135.45839147 -44.6328125 139.40478516 C-43.2578125 141.35009766 -43.2578125 141.35009766 -42.2578125 144.35009766 C-40.93442618 145.03629797 -39.59831302 145.69796227 -38.2578125 146.35009766 C-36.11613334 147.91053871 -34.22736988 149.55959095 -32.2578125 151.35009766 C-32.2578125 152.01009766 -32.2578125 152.67009766 -32.2578125 153.35009766 C-31.6390625 153.65947266 -31.0203125 153.96884766 -30.3828125 154.28759766 C-29.0078125 154.97509766 -27.6328125 155.66259766 -26.2578125 156.35009766 C-26.2578125 157.01009766 -26.2578125 157.67009766 -26.2578125 158.35009766 C-25.5359375 158.47384766 -24.8140625 158.59759766 -24.0703125 158.72509766 C-21.27580666 159.34609895 -18.84522205 160.12826537 -16.2578125 161.35009766 C-15.9278125 162.01009766 -15.5978125 162.67009766 -15.2578125 163.35009766 C-5.6878125 163.68009766 3.8821875 164.01009766 13.7421875 164.35009766 C13.7421875 163.69009766 13.7421875 163.03009766 13.7421875 162.35009766 C18.6921875 161.36009766 18.6921875 161.36009766 23.7421875 160.35009766 C23.7421875 159.69009766 23.7421875 159.03009766 23.7421875 158.35009766 C25.46484375 157.08837891 25.46484375 157.08837891 27.8046875 155.66259766 C35.88396918 150.3990154 41.42392281 144.56445249 44.7421875 135.35009766 C45.0721875 133.04009766 45.4021875 130.73009766 45.7421875 128.35009766 C27.9221875 128.02009766 10.1021875 127.69009766 -8.2578125 127.35009766 C-8.5878125 126.36009766 -8.9178125 125.37009766 -9.2578125 124.35009766 C-7.97718765 122.64259786 -6.63149595 120.98366716 -5.2578125 119.35009766 C-3.84138106 117.06282318 -2.55231599 114.70813514 -1.2578125 112.35009766 C0.3671875 109.41259766 0.3671875 109.41259766 1.7421875 107.35009766 C2.4021875 107.35009766 3.0621875 107.35009766 3.7421875 107.35009766 C4.01289063 106.76228516 4.28359375 106.17447266 4.5625 105.56884766 C5.7291691 103.3745826 6.98257839 101.71338266 8.6171875 99.85009766 C9.10960937 99.28291016 9.60203125 98.71572266 10.109375 98.13134766 C10.64820313 97.54353516 11.18703125 96.95572266 11.7421875 96.35009766 C12.2980806 95.66494583 12.85397369 94.97979401 13.42671204 94.27388 C16.5250568 91.69966099 18.42410904 91.82810617 22.42260742 91.78833008 C23.41593834 91.77041412 23.41593834 91.77041412 24.42933655 91.75213623 C26.61066205 91.71763708 28.79108079 91.71125151 30.97265625 91.70556641 C32.4891395 91.68804241 34.00560507 91.66892113 35.52204895 91.64826965 C38.69529914 91.60899204 41.86829767 91.58245299 45.04174805 91.56616211 C49.11779412 91.54514999 53.1932334 91.50259507 57.26900768 91.45186901 C61.14932557 91.40433701 65.02971925 91.36683696 68.91015625 91.33056641 C70.0264998 91.31905076 70.0264998 91.31905076 71.16539574 91.30730247 C73.26025533 91.28763894 75.35502656 91.27504052 77.44995117 91.26489258 C78.64367844 91.25697189 79.8374057 91.24905121 81.06730652 91.2408905 C83.7421875 91.35009766 83.7421875 91.35009766 84.7421875 92.35009766 C84.86149092 93.87641499 84.91228823 95.40816132 84.93505859 96.93896484 C84.95112152 97.91798767 84.96718445 98.8970105 84.98373413 99.90570068 C85.02832203 104.43745297 85.06934343 108.96905529 85.09228516 113.50097656 C85.10873876 115.87900654 85.13588571 118.25698928 85.17431641 120.63476562 C85.57232304 145.39077799 85.57232304 145.39077799 79.7421875 156.35009766 C79.22049691 157.62497148 78.70926118 158.90424481 78.21484375 160.18994141 C71.85392882 174.16280994 60.39504945 184.01936377 47.7421875 192.35009766 C46.7521875 193.01009766 45.7621875 193.67009766 44.7421875 194.35009766 C43.4221875 194.35009766 42.1021875 194.35009766 40.7421875 194.35009766 C40.7421875 195.01009766 40.7421875 195.67009766 40.7421875 196.35009766 C36.37069094 200.01651412 32.13960042 199.66759253 26.7421875 199.35009766 C26.4121875 200.34009766 26.0821875 201.33009766 25.7421875 202.35009766 C19.58551144 202.25634117 13.42921833 202.15019722 7.27294922 202.03271484 C5.1799093 201.99450059 3.0868054 201.95963468 0.99365234 201.92822266 C-2.02008891 201.88240806 -5.03339258 201.82444046 -8.046875 201.76416016 C-8.97835358 201.75260895 -9.90983215 201.74105774 -10.86953735 201.72915649 C-15.72634262 201.61955103 -19.69161471 201.19027979 -24.2578125 199.35009766 C-25.92397909 198.91069702 -27.59062213 198.47309771 -29.2578125 198.03759766 C-33.90331569 196.67371669 -36.56414867 194.49364134 -40.2578125 191.35009766 C-43.1988247 190.12021983 -46.18468037 189.1900871 -49.2578125 188.35009766 C-49.2578125 187.69009766 -49.2578125 187.03009766 -49.2578125 186.35009766 C-49.9178125 186.14384766 -50.5778125 185.93759766 -51.2578125 185.72509766 C-55.32961436 183.85885513 -58.94578248 181.37448239 -62.2578125 178.35009766 C-62.2578125 177.69009766 -62.2578125 177.03009766 -62.2578125 176.35009766 C-63.03253906 176.26630859 -63.80726563 176.18251953 -64.60546875 176.09619141 C-67.2578125 175.35009766 -67.2578125 175.35009766 -68.62890625 173.63525391 C-68.98082031 172.90177734 -69.33273438 172.16830078 -69.6953125 171.41259766 C-71.48904607 167.85918875 -73.36849717 164.43510622 -75.4453125 161.03759766 C-78.3571722 156.26645023 -80.40455183 152.25448678 -81.59765625 146.74072266 C-82.23339952 144.16121017 -82.23339952 144.16121017 -83.77416992 141.20263672 C-86.27054576 134.54382134 -85.68835598 127.32796185 -85.65625 120.31884766 C-85.65827441 118.75760767 -85.66118889 117.19636861 -85.66494751 115.63513184 C-85.66935364 112.37384986 -85.66299538 109.11281553 -85.64892578 105.8515625 C-85.63183473 101.68897535 -85.64168515 97.52696867 -85.65964317 93.36440277 C-85.67052755 90.14373468 -85.66701345 86.92320228 -85.6592598 83.70252991 C-85.65727062 82.1684614 -85.65967156 80.63438024 -85.66669846 79.10032654 C-85.70415963 68.62549841 -84.74436479 61.41483623 -79.2578125 52.35009766 C-78.55400093 50.36286498 -77.8866314 48.36231813 -77.2578125 46.35009766 C-76.60369565 44.67846571 -75.94127932 43.00994564 -75.2578125 41.35009766 C-74.5978125 41.35009766 -73.9378125 41.35009766 -73.2578125 41.35009766 C-73.2578125 40.69009766 -73.2578125 40.03009766 -73.2578125 39.35009766 C-72.5978125 39.35009766 -71.9378125 39.35009766 -71.2578125 39.35009766 C-71.07605469 38.63982422 -70.89429688 37.92955078 -70.70703125 37.19775391 C-70.45566406 36.27865234 -70.20429688 35.35955078 -69.9453125 34.41259766 C-69.57986328 33.0378125 -69.57986328 33.0378125 -69.20703125 31.63525391 C-68.89378906 30.88115234 -68.58054688 30.12705078 -68.2578125 29.35009766 C-67.2678125 29.02009766 -66.2778125 28.69009766 -65.2578125 28.35009766 C-64.9278125 27.52509766 -64.5978125 26.70009766 -64.2578125 25.85009766 C-63.9278125 25.02509766 -63.5978125 24.20009766 -63.2578125 23.35009766 C-62.2678125 23.02009766 -61.2778125 22.69009766 -60.2578125 22.35009766 C-59.8246875 21.45291016 -59.8246875 21.45291016 -59.3828125 20.53759766 C-57.90436383 17.66283636 -55.79541531 16.30209982 -53.2578125 14.35009766 C-52.9278125 13.69009766 -52.5978125 13.03009766 -52.2578125 12.35009766 C-50.57575523 11.65748584 -48.86041068 11.04468725 -47.1328125 10.47509766 C-43.76383764 9.30724426 -40.67084598 8.15770789 -37.6328125 6.28759766 C-31.68794018 2.87480058 -26.16204703 1.00488593 -19.2578125 1.35009766 C-16.18855235 -1.71916249 -4.3591464 0.02539175 0 0 Z " fill="#323A6E" transform="translate(255.2578125,116.64990234375)"/>
<path d="M0 0 C6.06071804 -0.12558071 12.12064451 -0.21525279 18.18237305 -0.2746582 C20.23524195 -0.29947645 22.2880257 -0.33334289 24.34057617 -0.37719727 C44.56783311 -0.7978767 62.47343153 1.00925741 78 15 C79.74492987 16.94745817 81.36386367 18.95692006 83 21 C83.91917956 21.97591904 84.85088833 22.94086295 85.8125 23.875 C86.534375 24.57625 87.25625 25.2775 88 26 C86.01558342 30.2509777 83.52344294 33.8728367 80 37 C77.125 37.4375 77.125 37.4375 75 37 C75 37.66 75 38.32 75 39 C74.01 39 73.02 39 72 39 C72 39.66 72 40.32 72 41 C71.01 41 70.02 41 69 41 C69 41.99 69 42.98 69 44 C68.01 44 67.02 44 66 44 C66 43.34 66 42.68 66 42 C65.01 42 64.02 42 63 42 C63 41.01 63 40.02 63 39 C62.34 39 61.68 39 61 39 C61 38.34 61 37.68 61 37 C60.01 37 59.02 37 58 37 C58 36.01 58 35.02 58 34 C56.35 34 54.7 34 53 34 C53 33.01 53 32.02 53 31 C52.01 31 51.02 31 50 31 C50 30.01 50 29.02 50 28 C48.35 28 46.7 28 45 28 C45 27.01 45 26.02 45 25 C41.37 25 37.74 25 34 25 C34 24.01 34 23.02 34 22 C30.37 22 26.74 22 23 22 C23 21.34 23 20.68 23 20 C13.1 20 3.2 20 -7 20 C-7.33 20.66 -7.66 21.32 -8 22 C-10.97 22 -13.94 22 -17 22 C-17 22.99 -17 23.98 -17 25 C-19.66666667 25 -22.33333333 25 -25 25 C-25 25.99 -25 26.98 -25 28 C-25.66 28 -26.32 28 -27 28 C-27 27.01 -27 26.02 -27 25 C-27.66 25.99 -28.32 26.98 -29 28 C-31.625 28.6875 -31.625 28.6875 -34 29 C-34.33 29.99 -34.66 30.98 -35 32 C-35.66 31.67 -36.32 31.34 -37 31 C-37 31.66 -37 32.32 -37 33 C-37.99 33 -38.98 33 -40 33 C-40 33.99 -40 34.98 -40 36 C-42.375 36.625 -42.375 36.625 -45 37 C-45.66 36.34 -46.32 35.68 -47 35 C-46.34 33.35 -45.68 31.7 -45 30 C-44.34 30 -43.68 30 -43 30 C-42.731875 29.360625 -42.46375 28.72125 -42.1875 28.0625 C-41 26 -41 26 -38 25 C-36.96210419 23.35666496 -35.96432076 21.68756133 -35 20 C-33.75 18.125 -33.75 18.125 -32 17 C-28.3125 17.3125 -28.3125 17.3125 -25 18 C-24.67 17.01 -24.34 16.02 -24 15 C-22.3545622 13.31237149 -20.68711423 11.6459651 -19 10 C-18.34 9.01 -17.68 8.02 -17 7 C-13.875 6.8125 -13.875 6.8125 -11 7 C-11 6.01 -11 5.02 -11 4 C-7.37 4 -3.74 4 0 4 C0 2.68 0 1.36 0 0 Z " fill="#707CBA" transform="translate(237,117)"/>
<path d="M0 0 C22.11 0 44.22 0 67 0 C66.67 1.32 66.34 2.64 66 4 C65.34 4 64.68 4 64 4 C64 4.66 64 5.32 64 6 C63.01 6 62.02 6 61 6 C60.9175 6.7425 60.835 7.485 60.75 8.25 C59.85190201 11.54302595 58.61583926 12.85976788 56 15 C55.34 15 54.68 15 54 15 C53.67 15.99 53.34 16.98 53 18 C49.3880472 22.0634469 45.20792634 25.25886405 40.890625 28.546875 C39.09414017 29.86261472 39.09414017 29.86261472 38 31 C36.18944975 31.09376053 34.37522799 31.1174411 32.56225586 31.11352539 C30.82056374 31.11341209 30.82056374 31.11341209 29.04368591 31.11329651 C27.14840904 31.10555458 27.14840904 31.10555458 25.21484375 31.09765625 C23.92888809 31.0962413 22.64293243 31.09482635 21.31800842 31.09336853 C17.89356557 31.08954418 14.46916491 31.07971462 11.04473877 31.06866455 C7.55261811 31.05844864 4.06049066 31.05387053 0.56835938 31.04882812 C-6.28777778 31.03809227 -13.14388687 31.02101684 -20 31 C-20 30.34 -20 29.68 -20 29 C-19.34 29 -18.68 29 -18 29 C-18 28.01 -18 27.02 -18 26 C-17.34 26 -16.68 26 -16 26 C-16 24.35 -16 22.7 -16 21 C-15.01 21 -14.02 21 -13 21 C-13 20.34 -13 19.68 -13 19 C-12.01 19 -11.02 19 -10 19 C-10 17.35 -10 15.7 -10 14 C-9.34 14 -8.68 14 -8 14 C-8 13.01 -8 12.02 -8 11 C-6.6875 9.3125 -6.6875 9.3125 -5 8 C-4.01 8 -3.02 8 -2 8 C-1.855625 7.236875 -1.71125 6.47375 -1.5625 5.6875 C-1 3 -1 3 0 0 Z " fill="#3D4684" transform="translate(270,211)"/>
<path d="M0 0 C1.37581111 -0.01013832 2.75162476 -0.01994114 4.12744141 -0.02929688 C5.26270264 -0.03864258 6.39796387 -0.04798828 7.56762695 -0.05761719 C9.99072266 0.04882812 9.99072266 0.04882812 10.99072266 1.04882812 C11.11002608 2.57514546 11.16082338 4.10689179 11.18359375 5.63769531 C11.19965668 6.61671814 11.2157196 7.59574097 11.23226929 8.60443115 C11.27685719 13.13618344 11.31787858 17.66778576 11.34082031 22.19970703 C11.35727392 24.57773701 11.38442086 26.95571975 11.42285156 29.33349609 C11.82092936 54.09393497 11.82092936 54.09393497 5.99072266 65.04882812 C5.49572266 66.53382813 5.49572266 66.53382813 4.99072266 68.04882812 C4.00072266 68.04882812 3.01072266 68.04882812 1.99072266 68.04882812 C1.99072266 65.40882813 1.99072266 62.76882813 1.99072266 60.04882812 C2.98072266 60.04882812 3.97072266 60.04882812 4.99072266 60.04882812 C4.99072266 57.73882812 4.99072266 55.42882812 4.99072266 53.04882812 C5.98072266 53.04882812 6.97072266 53.04882812 7.99072266 53.04882812 C7.99072266 36.54882812 7.99072266 20.04882812 7.99072266 3.04882812 C-14.11927734 3.04882812 -36.22927734 3.04882812 -59.00927734 3.04882812 C-59.33927734 4.69882813 -59.66927734 6.34882813 -60.00927734 8.04882812 C-60.33927734 9.03882813 -60.66927734 10.02882812 -61.00927734 11.04882812 C-61.99927734 11.04882812 -62.98927734 11.04882812 -64.00927734 11.04882812 C-64.33927734 12.03882813 -64.66927734 13.02882812 -65.00927734 14.04882812 C-65.66927734 14.04882812 -66.32927734 14.04882812 -67.00927734 14.04882812 C-67.00927734 15.03882813 -67.00927734 16.02882812 -67.00927734 17.04882812 C-67.66927734 17.04882812 -68.32927734 17.04882812 -69.00927734 17.04882812 C-69.00927734 18.69882813 -69.00927734 20.34882813 -69.00927734 22.04882812 C-69.99927734 22.04882812 -70.98927734 22.04882812 -72.00927734 22.04882812 C-72.00927734 22.70882812 -72.00927734 23.36882812 -72.00927734 24.04882812 C-72.99927734 24.04882812 -73.98927734 24.04882812 -75.00927734 24.04882812 C-75.00927734 25.69882813 -75.00927734 27.34882813 -75.00927734 29.04882812 C-75.66927734 29.04882812 -76.32927734 29.04882812 -77.00927734 29.04882812 C-77.00927734 30.03882813 -77.00927734 31.02882812 -77.00927734 32.04882812 C-77.66927734 32.04882812 -78.32927734 32.04882812 -79.00927734 32.04882812 C-79.00927734 32.70882812 -79.00927734 33.36882812 -79.00927734 34.04882812 C-61.18927734 34.04882812 -43.36927734 34.04882812 -25.00927734 34.04882812 C-25.00927734 37.67882812 -25.00927734 41.30882812 -25.00927734 45.04882812 C-25.66927734 45.04882812 -26.32927734 45.04882812 -27.00927734 45.04882812 C-27.00927734 47.68882812 -27.00927734 50.32882812 -27.00927734 53.04882812 C-27.99927734 53.04882812 -28.98927734 53.04882812 -30.00927734 53.04882812 C-30.00927734 54.03882813 -30.00927734 55.02882813 -30.00927734 56.04882812 C-30.99927734 56.04882812 -31.98927734 56.04882812 -33.00927734 56.04882812 C-33.00927734 58.02882813 -33.00927734 60.00882812 -33.00927734 62.04882812 C-34.98927734 62.04882812 -36.96927734 62.04882812 -39.00927734 62.04882812 C-39.00927734 63.03882813 -39.00927734 64.02882813 -39.00927734 65.04882812 C-39.99927734 65.04882812 -40.98927734 65.04882812 -42.00927734 65.04882812 C-42.00927734 66.03882813 -42.00927734 67.02882813 -42.00927734 68.04882812 C-43.32927734 68.04882812 -44.64927734 68.04882812 -46.00927734 68.04882812 C-46.00927734 68.70882812 -46.00927734 69.36882812 -46.00927734 70.04882812 C-46.99927734 70.04882812 -47.98927734 70.04882812 -49.00927734 70.04882812 C-49.00927734 71.03882813 -49.00927734 72.02882813 -49.00927734 73.04882812 C-49.63576172 73.18160156 -50.26224609 73.314375 -50.90771484 73.45117188 C-52.13361328 73.71607422 -52.13361328 73.71607422 -53.38427734 73.98632812 C-54.60244141 74.24736328 -54.60244141 74.24736328 -55.84521484 74.51367188 C-58.03874034 74.97213506 -58.03874034 74.97213506 -60.00927734 76.04882812 C-64.67136031 76.29370272 -69.34149102 76.23403099 -74.00927734 76.23632812 C-75.31896484 76.24857422 -76.62865234 76.26082031 -77.97802734 76.2734375 C-79.84974609 76.27633789 -79.84974609 76.27633789 -81.75927734 76.27929688 C-82.90912109 76.28340576 -84.05896484 76.28751465 -85.24365234 76.29174805 C-88.00927734 76.04882812 -88.00927734 76.04882812 -90.00927734 74.04882812 C-90.99927734 74.54382813 -90.99927734 74.54382813 -92.00927734 75.04882812 C-92.00927734 74.38882813 -92.00927734 73.72882813 -92.00927734 73.04882812 C-92.66927734 73.04882812 -93.32927734 73.04882812 -94.00927734 73.04882812 C-94.00927734 72.05882812 -94.00927734 71.06882812 -94.00927734 70.04882812 C-92.68927734 70.04882812 -91.36927734 70.04882812 -90.00927734 70.04882812 C-89.67927734 70.70882812 -89.34927734 71.36882812 -89.00927734 72.04882812 C-79.43927734 72.37882812 -69.86927734 72.70882812 -60.00927734 73.04882812 C-60.00927734 72.38882813 -60.00927734 71.72882813 -60.00927734 71.04882812 C-55.05927734 70.05882812 -55.05927734 70.05882812 -50.00927734 69.04882812 C-50.00927734 68.38882813 -50.00927734 67.72882813 -50.00927734 67.04882812 C-48.28662109 65.78710937 -48.28662109 65.78710937 -45.94677734 64.36132812 C-37.86749566 59.09774587 -32.32754203 53.26318296 -29.00927734 44.04882812 C-28.67927734 41.73882812 -28.34927734 39.42882812 -28.00927734 37.04882812 C-45.82927734 36.71882813 -63.64927734 36.38882813 -82.00927734 36.04882812 C-82.50427734 34.56382812 -82.50427734 34.56382812 -83.00927734 33.04882812 C-81.7286525 31.34132833 -80.38296079 29.68239763 -79.00927734 28.04882812 C-77.5928459 25.76155365 -76.30378083 23.4068656 -75.00927734 21.04882812 C-73.38427734 18.11132812 -73.38427734 18.11132812 -72.00927734 16.04882812 C-71.34927734 16.04882812 -70.68927734 16.04882812 -70.00927734 16.04882812 C-69.60322266 15.16710937 -69.60322266 15.16710937 -69.18896484 14.26757812 C-68.02229575 12.07331307 -66.76888646 10.41211312 -65.13427734 8.54882812 C-64.64185547 7.98164063 -64.14943359 7.41445312 -63.64208984 6.83007812 C-63.10326172 6.24226562 -62.56443359 5.65445313 -62.00927734 5.04882812 C-61.42040237 4.363349 -60.8315274 3.67786987 -60.22480774 2.97161865 C-57.56381981 0.66222926 -56.40111549 0.53769357 -52.92797852 0.50292969 C-51.91559616 0.48321106 -50.90321381 0.46349243 -49.8601532 0.44317627 C-48.22273918 0.44133331 -48.22273918 0.44133331 -46.55224609 0.43945312 C-45.41709061 0.42291687 -44.28193512 0.40638062 -43.11238098 0.38934326 C-39.4737937 0.34077577 -35.83561919 0.31952935 -32.19677734 0.29882812 C-29.78855277 0.27065797 -27.38034808 0.24072909 -24.97216797 0.20898438 C-19.30403778 0.13901889 -13.63618906 0.09483389 -7.9677124 0.06567383 C-5.31168885 0.05055009 -2.6559239 0.02698376 0 0 Z " fill="#1B1F36" transform="translate(329.00927734375,207.951171875)"/>
<path d="M0 0 C0 0.99 0 1.98 0 3 C-3.63 3 -7.26 3 -11 3 C-11 3.99 -11 4.98 -11 6 C-12.98 6 -14.96 6 -17 6 C-17 6.66 -17 7.32 -17 8 C-18.65 8 -20.3 8 -22 8 C-22 8.99 -22 9.98 -22 11 C-23.65 11 -25.3 11 -27 11 C-27 11.66 -27 12.32 -27 13 C-27.804375 13.12375 -28.60875 13.2475 -29.4375 13.375 C-30.283125 13.58125 -31.12875 13.7875 -32 14 C-32.33 14.66 -32.66 15.32 -33 16 C-34.32 16 -35.64 16 -37 16 C-37 16.99 -37 17.98 -37 19 C-37.66 19 -38.32 19 -39 19 C-39 19.66 -39 20.32 -39 21 C-39.66 21 -40.32 21 -41 21 C-41 21.99 -41 22.98 -41 24 C-41.99 24 -42.98 24 -44 24 C-44 25.32 -44 26.64 -44 28 C-44.66 28 -45.32 28 -46 28 C-46 29.65 -46 31.3 -46 33 C-46.99 33 -47.98 33 -49 33 C-49 34.65 -49 36.3 -49 38 C-49.66 38 -50.32 38 -51 38 C-51 38.66 -51 39.32 -51 40 C-51.99 40.495 -51.99 40.495 -53 41 C-53.72159424 42.64363134 -54.39351421 44.31050386 -55 46 C-55.66 46 -56.32 46 -57 46 C-57 48.31 -57 50.62 -57 53 C-57.66 53 -58.32 53 -59 53 C-59 53.99 -59 54.98 -59 56 C-59.66 56 -60.32 56 -61 56 C-61 58.64 -61 61.28 -61 64 C-61.99 64 -62.98 64 -64 64 C-64 87.43 -64 110.86 -64 135 C-63.01 135 -62.02 135 -61 135 C-60.690625 136.093125 -60.38125 137.18625 -60.0625 138.3125 C-59.41662103 140.55407994 -58.7376883 142.7869351 -58 145 C-58.495 145.99 -58.495 145.99 -59 147 C-58.34 147 -57.68 147 -57 147 C-57 150.3 -57 153.6 -57 157 C-55.68 157.33 -54.36 157.66 -53 158 C-52 159 -52 159 -51.9375 162.0625 C-51.958125 163.031875 -51.97875 164.00125 -52 165 C-51.34 165 -50.68 165 -50 165 C-49.67 165.99 -49.34 166.98 -49 168 C-48.154375 168.495 -47.30875 168.99 -46.4375 169.5 C-45.2309375 170.2425 -45.2309375 170.2425 -44 171 C-44 171.99 -44 172.98 -44 174 C-43.01 174 -42.02 174 -41 174 C-41 174.99 -41 175.98 -41 177 C-40.34 177 -39.68 177 -39 177 C-39.33 177.99 -39.66 178.98 -40 180 C-42 178.625 -42 178.625 -44 177 C-44 176.34 -44 175.68 -44 175 C-44.77472656 174.91621094 -45.54945313 174.83242188 -46.34765625 174.74609375 C-49 174 -49 174 -50.37109375 172.28515625 C-50.72300781 171.55167969 -51.07492188 170.81820312 -51.4375 170.0625 C-53.23123357 166.50909109 -55.11068467 163.08500857 -57.1875 159.6875 C-60.0993597 154.91635258 -62.14673933 150.90438913 -63.33984375 145.390625 C-63.97558702 142.81111252 -63.97558702 142.81111252 -65.51635742 139.85253906 C-68.01273326 133.19372368 -67.43054348 125.97786419 -67.3984375 118.96875 C-67.40046191 117.40751001 -67.40337639 115.84627095 -67.40713501 114.28503418 C-67.41154114 111.02375221 -67.40518288 107.76271787 -67.39111328 104.50146484 C-67.37402223 100.3388777 -67.38387265 96.17687101 -67.40183067 92.01430511 C-67.41271505 88.79363702 -67.40920095 85.57310462 -67.4014473 82.35243225 C-67.39945812 80.81836375 -67.40185906 79.28428258 -67.40888596 77.75022888 C-67.44634713 67.27540075 -66.48655229 60.06473857 -61 51 C-60.29618843 49.01276732 -59.6288189 47.01222047 -59 45 C-58.34588315 43.32836805 -57.68346682 41.65984798 -57 40 C-56.34 40 -55.68 40 -55 40 C-55 39.34 -55 38.68 -55 38 C-54.34 38 -53.68 38 -53 38 C-52.81824219 37.28972656 -52.63648438 36.57945312 -52.44921875 35.84765625 C-52.19785156 34.92855469 -51.94648438 34.00945312 -51.6875 33.0625 C-51.32205078 31.68771484 -51.32205078 31.68771484 -50.94921875 30.28515625 C-50.63597656 29.53105469 -50.32273438 28.77695313 -50 28 C-49.01 27.67 -48.02 27.34 -47 27 C-46.67 26.175 -46.34 25.35 -46 24.5 C-45.67 23.675 -45.34 22.85 -45 22 C-44.01 21.67 -43.02 21.34 -42 21 C-41.566875 20.1028125 -41.566875 20.1028125 -41.125 19.1875 C-39.64655133 16.3127387 -37.53760281 14.95200216 -35 13 C-34.67 12.34 -34.34 11.68 -34 11 C-32.31794273 10.30738818 -30.60259818 9.69458959 -28.875 9.125 C-25.50602514 7.9571466 -22.41303348 6.80761023 -19.375 4.9375 C-13.07319789 1.31979879 -7.26096583 -0.4634659 0 0 Z " fill="#1D2238" transform="translate(237,118)"/>
<path d="M0 0 C0.495 0.99 0.495 0.99 1 2 C1.99 2 2.98 2 4 2 C4 2.99 4 3.98 4 5 C5.65 5 7.3 5 9 5 C9 5.99 9 6.98 9 8 C9.99 8 10.98 8 12 8 C12 8.66 12 9.32 12 10 C12.66 10 13.32 10 14 10 C14 10.99 14 11.98 14 13 C14.99 13 15.98 13 17 13 C17 13.66 17 14.32 17 15 C17.99 15 18.98 15 20 15 C20 14.01 20 13.02 20 12 C20.99 12 21.98 12 23 12 C23 11.34 23 10.68 23 10 C23.99 10 24.98 10 26 10 C26 9.34 26 8.68 26 8 C26.99 8.33 27.98 8.66 29 9 C28.278125 9.556875 27.55625 10.11375 26.8125 10.6875 C23.92887004 12.92533937 23.92887004 12.92533937 21.625 15.75 C19 18 19 18 15.1875 18.3125 C14.135625 18.209375 13.08375 18.10625 12 18 C12 17.34 12 16.68 12 16 C10.91332031 15.70996094 10.91332031 15.70996094 9.8046875 15.4140625 C8.83789062 15.15367187 7.87109375 14.89328125 6.875 14.625 C5.44800781 14.24214844 5.44800781 14.24214844 3.9921875 13.8515625 C1 13 1 13 -1.61621094 11.9699707 C-5.86097095 10.75320075 -9.73918342 10.65735513 -14.1328125 10.62890625 C-15.00590057 10.61987778 -15.87898865 10.6108493 -16.77853394 10.60154724 C-18.62250363 10.58708356 -20.46652418 10.57816769 -22.31054688 10.57446289 C-25.09596198 10.56262343 -27.87911784 10.51344975 -30.6640625 10.46289062 C-45.16331374 10.33015764 -56.05831992 12.84984572 -67 23 C-69.32277416 25.6091387 -69.32277416 25.6091387 -71 28 C-72.625 29.8125 -72.625 29.8125 -74 31 C-74.66 31 -75.32 31 -76 31 C-75.938125 32.423125 -75.938125 32.423125 -75.875 33.875 C-76 37 -76 37 -78 39 C-78.71408334 40.98356483 -79.38617742 42.98315437 -80 45 C-80.66 45 -81.32 45 -82 45 C-82 46.98 -82 48.96 -82 51 C-82.99 51.495 -82.99 51.495 -84 52 C-84 49.36 -84 46.72 -84 44 C-83.01 44 -82.02 44 -81 44 C-81 41.69 -81 39.38 -81 37 C-80.34 37 -79.68 37 -79 37 C-79.061875 36.071875 -79.12375 35.14375 -79.1875 34.1875 C-79 31 -79 31 -77.625 29.125 C-76 28 -76 28 -74 28 C-74 27.01 -74 26.02 -74 25 C-73.01 25 -72.02 25 -71 25 C-71 24.01 -71 23.02 -71 22 C-70.34 22 -69.68 22 -69 22 C-69 21.34 -69 20.68 -69 20 C-68.01 20 -67.02 20 -66 20 C-66 19.01 -66 18.02 -66 17 C-65.34 17 -64.68 17 -64 17 C-63.690625 16.1028125 -63.690625 16.1028125 -63.375 15.1875 C-61.41076615 12.06258251 -59.42634728 11.29296124 -56 10 C-52.125 9.8125 -52.125 9.8125 -49 10 C-49 9.01 -49 8.02 -49 7 C-44.30623571 6.22509839 -39.9418367 5.92407129 -35.19140625 6.12109375 C-33.33032227 6.19360352 -33.33032227 6.19360352 -31.43164062 6.26757812 C-30.15482422 6.32365234 -28.87800781 6.37972656 -27.5625 6.4375 C-26.25861328 6.48970703 -24.95472656 6.54191406 -23.61132812 6.59570312 C-20.40727553 6.72480415 -17.20358054 6.85974595 -14 7 C-13.67 6.01 -13.34 5.02 -13 4 C-11.7625 4.04125 -10.525 4.0825 -9.25 4.125 C-5.99716438 4.125 -3.71812283 3.95704844 -1 2 C-0.67 1.34 -0.34 0.68 0 0 Z " fill="#1D223C" transform="translate(286,146)"/>
<path d="M0 0 C1.70884005 1.62339805 3.37446717 3.29319053 5 5 C5 5.66 5 6.32 5 7 C5.53625 7.226875 6.0725 7.45375 6.625 7.6875 C9.82460161 9.45570089 12.29037223 11.53670203 15 14 C15 14.66 15 15.32 15 16 C15.61875 16.309375 16.2375 16.61875 16.875 16.9375 C18.25 17.625 19.625 18.3125 21 19 C21 19.66 21 20.32 21 21 C22.65 21.33 24.3 21.66 26 22 C26 22.99 26 23.98 26 25 C25.01 25 24.02 25 23 25 C23.185625 25.598125 23.37125 26.19625 23.5625 26.8125 C24 29 24 29 23 32 C22.34 32 21.68 32 21 32 C21 31.34 21 30.68 21 30 C20.01 30 19.02 30 18 30 C18 29.34 18 28.68 18 28 C17.01 28 16.02 28 15 28 C15 27.01 15 26.02 15 25 C14.01 25 13.02 25 12 25 C12 24.01 12 23.02 12 22 C11.34 22 10.68 22 10 22 C10 21.01 10 20.02 10 19 C9.34 19 8.68 19 8 19 C6.375 17.875 6.375 17.875 5 16 C4.8125 12.8125 4.8125 12.8125 5 10 C4.01 10 3.02 10 2 10 C2 8.35 2 6.7 2 5 C1.34 5 0.68 5 0 5 C0 3.35 0 1.7 0 0 Z " fill="#191F39" transform="translate(208,254)"/>
<path d="M0 0 C5.61 0 11.22 0 17 0 C16.67 1.32 16.34 2.64 16 4 C15.34 4 14.68 4 14 4 C14 4.66 14 5.32 14 6 C13.01 6 12.02 6 11 6 C10.9175 6.7425 10.835 7.485 10.75 8.25 C9.85190201 11.54302595 8.61583926 12.85976788 6 15 C5.34 15 4.68 15 4 15 C3.67 15.99 3.34 16.98 3 18 C-2.05779572 23.69002019 -8.24785014 29.96274051 -16 31 C-16 30.01 -16 29.02 -16 28 C-15.34 28 -14.68 28 -14 28 C-14.33 27.01 -14.66 26.02 -15 25 C-12 23 -12 23 -8 23 C-7.67 21.68 -7.34 20.36 -7 19 C-6.01 19 -5.02 19 -4 19 C-4 18.34 -4 17.68 -4 17 C-2 15 -2 15 0 14 C0.33 13.01 0.66 12.02 1 11 C1.99 11 2.98 11 4 11 C4.33 10.01 4.66 9.02 5 8 C5.66 8 6.32 8 7 8 C7 7.01 7 6.02 7 5 C7.66 5 8.32 5 9 5 C9 4.01 9 3.02 9 2 C6.03 1.67 3.06 1.34 0 1 C0 0.67 0 0.34 0 0 Z " fill="#515C97" transform="translate(320,211)"/>
<path d="M0 0 C0.99 0 1.98 0 3 0 C3 13.2 3 26.4 3 40 C3.66 40 4.32 40 5 40 C6.10705648 42.21411296 6.2662116 43.79522185 6.5 46.25 C6.86777605 49.86354566 7.35797408 53.42299843 8 57 C6 57 6 57 4.38671875 55.91796875 C2.33212251 53.07625958 2.70989558 50.76684873 2.8125 47.3125 C2.83957031 46.13300781 2.86664063 44.95351562 2.89453125 43.73828125 C2.92933594 42.83464844 2.96414062 41.93101562 3 41 C2.01 41 1.02 41 0 41 C0 27.47 0 13.94 0 0 Z " fill="#1C2137" transform="translate(199,198)"/>
<path d="M0 0 C2.822052 -0.36076355 2.822052 -0.36076355 6.46923828 -0.34057617 C7.46454056 -0.34123329 7.46454056 -0.34123329 8.47994995 -0.34190369 C10.677035 -0.33981068 12.87336049 -0.31645699 15.0703125 -0.29296875 C16.5920266 -0.28737458 18.1137461 -0.28310364 19.63546753 -0.28010559 C23.64364499 -0.26864261 27.65149712 -0.2391633 31.6595459 -0.20599365 C35.74824624 -0.17532384 39.83699907 -0.16160689 43.92578125 -0.14648438 C51.95067025 -0.11429467 59.97529468 -0.06308116 68 0 C68 0.33 68 0.66 68 1 C45.89 1 23.78 1 1 1 C0.67 2.65 0.34 4.3 0 6 C-0.33 6.99 -0.66 7.98 -1 9 C-1.99 9 -2.98 9 -4 9 C-4.33 9.99 -4.66 10.98 -5 12 C-5.66 12 -6.32 12 -7 12 C-7 12.99 -7 13.98 -7 15 C-7.66 15 -8.32 15 -9 15 C-9 16.65 -9 18.3 -9 20 C-9.99 20 -10.98 20 -12 20 C-12 20.66 -12 21.32 -12 22 C-12.99 22 -13.98 22 -15 22 C-15 23.65 -15 25.3 -15 27 C-15.66 27 -16.32 27 -17 27 C-17 27.99 -17 28.98 -17 30 C-17.66 30 -18.32 30 -19 30 C-19 30.66 -19 31.32 -19 32 C-19.66 31.67 -20.32 31.34 -21 31 C-20.34344577 26.91926294 -18.20461021 23.70012441 -16.0625 20.25 C-15.52206055 19.34701172 -15.52206055 19.34701172 -14.97070312 18.42578125 C-14.03920867 16.91274606 -13.02538164 15.45105131 -12 14 C-11.34 14 -10.68 14 -10 14 C-9.731875 13.41347656 -9.46375 12.82695312 -9.1875 12.22265625 C-7.99203255 9.98508723 -6.68726121 8.32301441 -5 6.4375 C-3.12253722 4.33004803 -1.57778314 2.36667471 0 0 Z " fill="#1F2335" transform="translate(269,210)"/>
<path d="M0 0 C0 2.31 0 4.62 0 7 C-0.66 7 -1.32 7 -2 7 C-2 9.31 -2 11.62 -2 14 C-2.99 14 -3.98 14 -5 14 C-5 16.64 -5 19.28 -5 22 C-5.99 22 -6.98 22 -8 22 C-8 34.87 -8 47.74 -8 61 C-8.99 61.495 -8.99 61.495 -10 62 C-10.04992286 56.93206166 -10.08596378 51.86427058 -10.10986328 46.79614258 C-10.1198403 45.07671613 -10.13342675 43.35730628 -10.15087891 41.63793945 C-10.24386086 32.23308829 -10.29982328 23.1954039 -8 14 C-7.34 14 -6.68 14 -6 14 C-5.97421875 13.32453125 -5.9484375 12.6490625 -5.921875 11.953125 C-5.45407962 4.5959795 -5.45407962 4.5959795 -3 1.375 C-1 0 -1 0 0 0 Z " fill="#5B6694" transform="translate(207,176)"/>
<path d="M0 0 C0.99 0 1.98 0 3 0 C2.26174248 7.75170398 -2.20079541 12.56995462 -7.5625 17.875 C-8.08191162 18.39239746 -8.60132324 18.90979492 -9.13647461 19.44287109 C-24.07097708 34 -24.07097708 34 -32 34 C-32 33.01 -32 32.02 -32 31 C-30.68 31 -29.36 31 -28 31 C-28 30.34 -28 29.68 -28 29 C-26.68 28.67 -25.36 28.34 -24 28 C-24 27.34 -24 26.68 -24 26 C-22.35 26 -20.7 26 -19 26 C-19 25.01 -19 24.02 -19 23 C-18.34 23 -17.68 23 -17 23 C-17 22.34 -17 21.68 -17 21 C-16.01 21 -15.02 21 -14 21 C-13.67 20.01 -13.34 19.02 -13 18 C-12.34 18 -11.68 18 -11 18 C-11 17.01 -11 16.02 -11 15 C-10.01 15 -9.02 15 -8 15 C-8 14.34 -8 13.68 -8 13 C-6.625 11.375 -6.625 11.375 -5 10 C-4.34 10 -3.68 10 -3 10 C-3 8.02 -3 6.04 -3 4 C-2.01 4 -1.02 4 0 4 C0 2.68 0 1.36 0 0 Z " fill="#1E2238" transform="translate(328,277)"/>
<path d="M0 0 C2.64 0 5.28 0 8 0 C8 0.99 8 1.98 8 3 C2.65338434 4.78117801 -1.94500229 5.27243829 -7.55859375 5.1953125 C-8.34774673 5.1924826 -9.13689972 5.18965271 -9.94996643 5.18673706 C-12.44597172 5.17563057 -14.94160498 5.15054455 -17.4375 5.125 C-19.13996874 5.11495785 -20.84244316 5.10583417 -22.54492188 5.09765625 C-26.69675576 5.0757226 -30.84831502 5.04125977 -35 5 C-35 4.01 -35 3.02 -35 2 C-23.45 2 -11.9 2 0 2 C0 1.34 0 0.68 0 0 Z " fill="#545D93" transform="translate(288,296)"/>
<path d="M0 0 C0.93423645 3.01031744 1.04449911 3.86650268 0 7 C-0.66 7 -1.32 7 -2 7 C-2.226875 7.53625 -2.45375 8.0725 -2.6875 8.625 C-3.86198149 10.75025221 -5.04815247 12.30246801 -6.625 14.125 C-9.21229382 16.63546917 -9.21229382 16.63546917 -9 19 C-7.71351563 18.98839844 -6.42703125 18.97679687 -5.1015625 18.96484375 C9.62150618 18.8765991 24.29288959 19.3374223 39 20 C39 20.33 39 20.66 39 21 C21.51 21 4.02 21 -14 21 C-14 20.34 -14 19.68 -14 19 C-13.34 19 -12.68 19 -12 19 C-12 18.01 -12 17.02 -12 16 C-11.34 16 -10.68 16 -10 16 C-10 14.35 -10 12.7 -10 11 C-9.01 11 -8.02 11 -7 11 C-7 10.34 -7 9.68 -7 9 C-6.01 9 -5.02 9 -4 9 C-4 7.35 -4 5.7 -4 4 C-3.34 4 -2.68 4 -2 4 C-2 3.01 -2 2.02 -2 1 C-1.34 0.67 -0.68 0.34 0 0 Z " fill="#303462" transform="translate(264,221)"/>
<path d="M0 0 C1.32 0.33 2.64 0.66 4 1 C2.7260411 3.03833424 1.38938077 5.03852126 0 7 C-0.66 7 -1.32 7 -2 7 C-2.6496875 7.7734375 -2.6496875 7.7734375 -3.3125 8.5625 C-3.869375 9.036875 -4.42625 9.51125 -5 10 C-5.804375 9.814375 -6.60875 9.62875 -7.4375 9.4375 C-8.283125 9.293125 -9.12875 9.14875 -10 9 C-13.33223231 11.47537257 -14.70308182 14.10924546 -16 18 C-16.99 18 -17.98 18 -19 18 C-19.66 18.99 -20.32 19.98 -21 21 C-21.66 21 -22.32 21 -23 21 C-23.33 22.32 -23.66 23.64 -24 25 C-24 23.35 -24 21.7 -24 20 C-23.34 20 -22.68 20 -22 20 C-22 18.68 -22 17.36 -22 16 C-21.01 16 -20.02 16 -19 16 C-19 15.01 -19 14.02 -19 13 C-18.34 13 -17.68 13 -17 13 C-17 12.34 -17 11.68 -17 11 C-16.34 11 -15.68 11 -15 11 C-15 10.01 -15 9.02 -15 8 C-13.68 8 -12.36 8 -11 8 C-10.67 7.01 -10.34 6.02 -10 5 C-8.35 5 -6.7 5 -5 5 C-5 4.34 -5 3.68 -5 3 C-3.35 3 -1.7 3 0 3 C0 2.01 0 1.02 0 0 Z M-26 25 C-25.01 25.495 -25.01 25.495 -24 26 C-24.99 26.495 -24.99 26.495 -26 27 C-26 26.34 -26 25.68 -26 25 Z " fill="#464D7F" transform="translate(215,126)"/>
<path d="M0 0 C3.84066037 1.56471348 6.13033315 4.06034127 9 7 C9.886875 7.66 10.77375 8.32 11.6875 9 C14.25894315 11.22395083 14.86809886 12.85755301 16 16 C14.71520959 17.50589388 13.42195918 19.00457375 12.125 20.5 C11.40570313 21.3353125 10.68640625 22.170625 9.9453125 23.03125 C9.30335938 23.6809375 8.66140625 24.330625 8 25 C7.34 25 6.68 25 6 25 C6 24.01 6 23.02 6 22 C6.66 22 7.32 22 8 22 C8 21.01 8 20.02 8 19 C8.99 19 9.98 19 11 19 C11 18.01 11 17.02 11 16 C11.66 16 12.32 16 13 16 C13 15.34 13 14.68 13 14 C12.34 14 11.68 14 11 14 C11 13.01 11 12.02 11 11 C10.01 11.33 9.02 11.66 8 12 C7.67 11.34 7.34 10.68 7 10 C7.33 9.34 7.66 8.68 8 8 C7.34 8 6.68 8 6 8 C6 8.66 6 9.32 6 10 C5.34 10 4.68 10 4 10 C3.7525 9.030625 3.505 8.06125 3.25 7.0625 C2.63125 5.5465625 2.63125 5.5465625 2 4 C-0.03243548 3.03122943 -0.03243548 3.03122943 -2 3 C-1.34 2.67 -0.68 2.34 0 2 C0 1.34 0 0.68 0 0 Z " fill="#464D77" transform="translate(309,129)"/>
<path d="M0 0 C1.79869537 0.0199855 1.79869537 0.0199855 3.63372803 0.04037476 C4.29755493 0.0394986 4.96138184 0.03862244 5.64532471 0.03771973 C7.83244885 0.04188941 10.01647819 0.08849914 12.20306396 0.1355896 C13.72190678 0.14678426 15.24077131 0.15532318 16.75964355 0.16131592 C20.75181194 0.18419393 24.74266449 0.2431054 28.73431396 0.30953979 C32.80965371 0.37098625 36.88520672 0.39833579 40.96087646 0.42855835 C48.95366694 0.49285217 56.94538914 0.59521624 64.93743896 0.7215271 C64.93743896 1.0515271 64.93743896 1.3815271 64.93743896 1.7215271 C42.82743896 1.7215271 20.71743896 1.7215271 -2.06256104 1.7215271 C-2.39256104 3.3715271 -2.72256104 5.0215271 -3.06256104 6.7215271 C-4.05256104 8.2065271 -4.05256104 8.2065271 -5.06256104 9.7215271 C-5.06256104 9.0615271 -5.06256104 8.4015271 -5.06256104 7.7215271 C-5.72256104 7.3915271 -6.38256104 7.0615271 -7.06256104 6.7215271 C-3.96815785 0.93488208 -3.96815785 0.93488208 0 0 Z " fill="#212649" transform="translate(272.06256103515625,209.27847290039063)"/>
<path d="M0 0 C5.61 0 11.22 0 17 0 C16.67 1.32 16.34 2.64 16 4 C15.34 4 14.68 4 14 4 C14 4.66 14 5.32 14 6 C13.01 6 12.02 6 11 6 C11 6.99 11 7.98 11 9 C10.01 9 9.02 9 8 9 C8 9.99 8 10.98 8 12 C7.01 12 6.02 12 5 12 C5 12.66 5 13.32 5 14 C4.01 14 3.02 14 2 14 C2.8125 11.5625 2.8125 11.5625 4 9 C4.99 8.67 5.98 8.34 7 8 C7 7.01 7 6.02 7 5 C7.66 5 8.32 5 9 5 C9 4.01 9 3.02 9 2 C6.03 1.67 3.06 1.34 0 1 C0 0.67 0 0.34 0 0 Z " fill="#5C669A" transform="translate(320,211)"/>
<path d="M0 0 C1.43739513 -0.02712066 2.87493863 -0.04645067 4.3125 -0.0625 C5.51326172 -0.07990234 5.51326172 -0.07990234 6.73828125 -0.09765625 C9 0 9 0 12 1 C12 1.66 12 2.32 12 3 C17.445 2.505 17.445 2.505 23 2 C23.33 3.32 23.66 4.64 24 6 C24.66 6 25.32 6 26 6 C25.67 6.99 25.34 7.98 25 9 C24.01 9 23.02 9 22 9 C22 8.01 22 7.02 22 6 C18.37 6 14.74 6 11 6 C11 5.01 11 4.02 11 3 C7.37 3 3.74 3 0 3 C0 2.01 0 1.02 0 0 Z " fill="#8A96CA" transform="translate(260,136)"/>
<path d="M0 0 C1.58560393 0.25720674 3.16845924 0.53138799 4.75 0.8125 C5.63171875 0.96332031 6.5134375 1.11414063 7.421875 1.26953125 C10.1910911 2.05414248 11.8259401 3.14595359 14 5 C12.02 5.66 10.04 6.32 8 7 C8 6.01 8 5.02 8 4 C-2.23 4 -12.46 4 -23 4 C-23 3.67 -23 3.34 -23 3 C-15.74 3 -8.48 3 -1 3 C-0.67 2.01 -0.34 1.02 0 0 Z " fill="#282F4E" transform="translate(273,150)"/>
<path d="M0 0 C20.53191489 -0.19148936 20.53191489 -0.19148936 30 1 C30 1.33 30 1.66 30 2 C19.96557967 2.87801178 10.06394247 3.1176305 0 3 C0 2.01 0 1.02 0 0 Z " fill="#5E679E" transform="translate(253,298)"/>
<path d="M0 0 C0.99 0 1.98 0 3 0 C3 2 3 2 1.625 3.625 C0 5 0 5 -2 5 C-1.938125 6.423125 -1.938125 6.423125 -1.875 7.875 C-2 11 -2 11 -4 13 C-4.71408334 14.98356483 -5.38617742 16.98315437 -6 19 C-6.66 19 -7.32 19 -8 19 C-8 20.98 -8 22.96 -8 25 C-8.66 25.33 -9.32 25.66 -10 26 C-10 23.36 -10 20.72 -10 18 C-9.01 18 -8.02 18 -7 18 C-7 15.69 -7 13.38 -7 11 C-6.34 11 -5.68 11 -5 11 C-5.061875 10.071875 -5.12375 9.14375 -5.1875 8.1875 C-5 5 -5 5 -3.625 3.125 C-2 2 -2 2 0 2 C0 1.34 0 0.68 0 0 Z " fill="#1B2038" transform="translate(212,172)"/>
<path d="M0 0 C0.99 0 1.98 0 3 0 C3 0.66 3 1.32 3 2 C3.66 2 4.32 2 5 2 C5 2.99 5 3.98 5 5 C5.99 5 6.98 5 8 5 C8 5.66 8 6.32 8 7 C8.99 7 9.98 7 11 7 C11 6.01 11 5.02 11 4 C11.99 4 12.98 4 14 4 C14 3.34 14 2.68 14 2 C14.99 2 15.98 2 17 2 C17 1.34 17 0.68 17 0 C17.99 0.33 18.98 0.66 20 1 C18.9171875 1.8353125 18.9171875 1.8353125 17.8125 2.6875 C14.9298039 4.9538973 14.9298039 4.9538973 12.4375 7.75 C10 10 10 10 6 10 C5.67 9.01 5.34 8.02 5 7 C4.34 7 3.68 7 3 7 C2.01 4.69 1.02 2.38 0 0 Z " fill="#1F2444" transform="translate(295,154)"/>
<path d="M0 0 C0.99 0 1.98 0 3 0 C3 0.66 3 1.32 3 2 C3.66 2 4.32 2 5 2 C5 2.99 5 3.98 5 5 C5.99 5 6.98 5 8 5 C8 5.99 8 6.98 8 8 C8.99 8 9.98 8 11 8 C11 8.66 11 9.32 11 10 C11.99 10 12.98 10 14 10 C14 10.99 14 11.98 14 13 C14.66 13 15.32 13 16 13 C15.67 14.32 15.34 15.64 15 17 C14.34 15.68 13.68 14.36 13 13 C12.34 13 11.68 13 11 13 C11 12.34 11 11.68 11 11 C10.4225 10.938125 9.845 10.87625 9.25 10.8125 C6.07551517 9.66615826 4.87151425 7.74043158 3 5 C3 4.34 3 3.68 3 3 C2.01 3 1.02 3 0 3 C0 2.01 0 1.02 0 0 Z " fill="#536091" transform="translate(215,274)"/>
<path d="M0 0 C1.93166016 0.01740234 1.93166016 0.01740234 3.90234375 0.03515625 C5.19269531 0.04417969 6.48304688 0.05320312 7.8125 0.0625 C8.81152344 0.07410156 9.81054688 0.08570312 10.83984375 0.09765625 C10.83984375 1.08765625 10.83984375 2.07765625 10.83984375 3.09765625 C11.82984375 3.09765625 12.81984375 3.09765625 13.83984375 3.09765625 C13.83984375 3.75765625 13.83984375 4.41765625 13.83984375 5.09765625 C10.87809252 4.48488013 9.45925592 3.84393103 6.83984375 2.09765625 C5.84984375 2.09765625 4.85984375 2.09765625 3.83984375 2.09765625 C3.83984375 2.75765625 3.83984375 3.41765625 3.83984375 4.09765625 C2.51984375 4.42765625 1.19984375 4.75765625 -0.16015625 5.09765625 C-0.16015625 4.43765625 -0.16015625 3.77765625 -0.16015625 3.09765625 C-0.82015625 3.09765625 -1.48015625 3.09765625 -2.16015625 3.09765625 C-2.49015625 3.75765625 -2.82015625 4.41765625 -3.16015625 5.09765625 C-3.72265625 3.16015625 -3.72265625 3.16015625 -4.16015625 1.09765625 C-3.16015625 0.09765625 -3.16015625 0.09765625 0 0 Z " fill="#818FC8" transform="translate(284.16015625,120.90234375)"/>
<path d="M0 0 C4 3 4 3 5.8125 4.53125 C8.32682712 6.21944107 10.27873061 6.67925655 13.25 7.1875 C14.14203125 7.34605469 15.0340625 7.50460937 15.953125 7.66796875 C16.62859375 7.77753906 17.3040625 7.88710938 18 8 C18 8.33 18 8.66 18 9 C16.10448978 9.05441656 14.2085208 9.09298035 12.3125 9.125 C11.25675781 9.14820313 10.20101562 9.17140625 9.11328125 9.1953125 C5.97748141 8.99858729 3.82354627 8.33057654 1 7 C1 5.68 1 4.36 1 3 C0.34 3 -0.32 3 -1 3 C-0.67 2.01 -0.34 1.02 0 0 Z " fill="#414978" transform="translate(219,305)"/>
<path d="M0 0 C2.19130534 0.69579454 2.19130534 0.69579454 4 1 C4.625 2.875 4.625 2.875 5 5 C4.34 5.66 3.68 6.32 3 7 C2.01 7 1.02 7 0 7 C0 6.01 0 5.02 0 4 C-0.66 4 -1.32 4 -2 4 C-2 3.34 -2 2.68 -2 2 C-2.99 2 -3.98 2 -5 2 C-5 1.01 -5 0.02 -5 -1 C-6.65 -1 -8.3 -1 -10 -1 C-10 -1.33 -10 -1.66 -10 -2 C-5.50001731 -3.41428028 -3.83510922 -2.55673948 0 0 Z " fill="#6873A5" transform="translate(300,152)"/>
<path d="M0 0 C1.32 0.33 2.64 0.66 4 1 C2.7260411 3.03833424 1.38938077 5.03852126 0 7 C-0.66 7 -1.32 7 -2 7 C-3.62514468 8.45833358 -3.62514468 8.45833358 -5 10 C-7.475 9.01 -7.475 9.01 -10 8 C-10 7.01 -10 6.02 -10 5 C-8.35 5 -6.7 5 -5 5 C-5 4.34 -5 3.68 -5 3 C-3.35 3 -1.7 3 0 3 C0 2.01 0 1.02 0 0 Z " fill="#545C90" transform="translate(215,126)"/>
<path d="M0 0 C0 0.99 0 1.98 0 3 C-3.63 3 -7.26 3 -11 3 C-11 3.99 -11 4.98 -11 6 C-12.98 6 -14.96 6 -17 6 C-17.33 6.66 -17.66 7.32 -18 8 C-18 6.68 -18 5.36 -18 4 C-6.66287016 -0.59225513 -6.66287016 -0.59225513 0 0 Z " fill="#252C4B" transform="translate(237,118)"/>
<path d="M0 0 C4.875 4.75 4.875 4.75 6 7 C6.99 6.67 7.98 6.34 9 6 C9 7.32 9 8.64 9 10 C8.01 10 7.02 10 6 10 C6 9.34 6 8.68 6 8 C5.25234375 7.80664062 4.5046875 7.61328125 3.734375 7.4140625 C2.25710938 7.02347656 2.25710938 7.02347656 0.75 6.625 C-0.22453125 6.36976563 -1.1990625 6.11453125 -2.203125 5.8515625 C-4.65837303 5.10401491 -6.75617405 4.22876183 -9 3 C-8.43410156 2.86722656 -7.86820312 2.73445312 -7.28515625 2.59765625 C-6.18494141 2.33275391 -6.18494141 2.33275391 -5.0625 2.0625 C-4.33160156 1.88847656 -3.60070312 1.71445313 -2.84765625 1.53515625 C-1.00030102 1.16112431 -1.00030102 1.16112431 0 0 Z " fill="#1B1D2D" transform="translate(292,154)"/>
<path d="M0 0 C1.32 0 2.64 0 4 0 C4 0.66 4 1.32 4 2 C6.31 2 8.62 2 11 2 C11 3.32 11 4.64 11 6 C4.9453125 6.1953125 4.9453125 6.1953125 3 6 C1.66666667 4.66666667 0.33333333 3.33333333 -1 2 C-0.67 1.34 -0.34 0.68 0 0 Z " fill="#626EA3" transform="translate(233,290)"/>
<path d="M0 0 C0.93423645 3.01031744 1.04449911 3.86650268 0 7 C-0.66 7 -1.32 7 -2 7 C-2.226875 7.556875 -2.45375 8.11375 -2.6875 8.6875 C-4.35896766 11.63246684 -6.55276352 13.68156544 -9 16 C-8.125 11.25 -8.125 11.25 -7 9 C-6.01 9 -5.02 9 -4 9 C-4 7.35 -4 5.7 -4 4 C-3.34 4 -2.68 4 -2 4 C-2 3.01 -2 2.02 -2 1 C-1.34 0.67 -0.68 0.34 0 0 Z " fill="#353C67" transform="translate(264,221)"/>
<path d="M0 0 C5.75142442 1.29113609 9.37743259 3.3208137 14 7 C14 7.33 14 7.66 14 8 C12.02 8 10.04 8 8 8 C8 7.01 8 6.02 8 5 C6.35 5 4.7 5 3 5 C3 4.34 3 3.68 3 3 C2.01 3 1.02 3 0 3 C0 2.01 0 1.02 0 0 Z " fill="#242949" transform="translate(295,121)"/>
<path d="M0 0 C0 0.66 0 1.32 0 2 C-0.66 2 -1.32 2 -2 2 C-2 2.99 -2 3.98 -2 5 C-2.99 5 -3.98 5 -5 5 C-5 5.99 -5 6.98 -5 8 C-5.99 8 -6.98 8 -8 8 C-8 8.66 -8 9.32 -8 10 C-8.99 10 -9.98 10 -11 10 C-10.1875 7.5625 -10.1875 7.5625 -9 5 C-8.01 4.67 -7.02 4.34 -6 4 C-6 3.01 -6 2.02 -6 1 C-3 0 -3 0 0 0 Z " fill="#606DA5" transform="translate(333,215)"/>
<path d="M0 0 C0.33 0.99 0.66 1.98 1 3 C-0.3125 4.5 -0.3125 4.5 -2 6 C-2.99 6 -3.98 6 -5 6 C-5 6.66 -5 7.32 -5 8 C-5.66 8 -6.32 8 -7 8 C-7 8.99 -7 9.98 -7 11 C-8.65 11 -10.3 11 -12 11 C-10.73786958 7.21360875 -9.34654649 6.95895404 -6 5 C-5.34 4.01 -4.68 3.02 -4 2 C-2.68 2 -1.36 2 0 2 C0 1.34 0 0.68 0 0 Z " fill="#2E345F" transform="translate(316,292)"/>
<path d="M0 0 C1.32 0.33 2.64 0.66 4 1 C4.07654536 5.51617599 4.10228696 9.59085217 3 14 C2.34 14 1.68 14 1 14 C0.67 9.38 0.34 4.76 0 0 Z " fill="#4A5482" transform="translate(198,238)"/>
<path d="M0 0 C0 2.31 0 4.62 0 7 C-0.66 7 -1.32 7 -2 7 C-2 9.31 -2 11.62 -2 14 C-2.33 14 -2.66 14 -3 14 C-3 12.02 -3 10.04 -3 8 C-3.66 8 -4.32 8 -5 8 C-3.91891892 0 -3.91891892 0 0 0 Z " fill="#48527A" transform="translate(207,176)"/>
<path d="M0 0 C1.32 0 2.64 0 4 0 C4 0.99 4 1.98 4 3 C5.98 3 7.96 3 10 3 C10 3.66 10 4.32 10 5 C9.34 5 8.68 5 8 5 C8 5.66 8 6.32 8 7 C6.68 7 5.36 7 4 7 C4 6.34 4 5.68 4 5 C3.34 5 2.68 5 2 5 C2 4.34 2 3.68 2 3 C1.34 3 0.68 3 0 3 C0 2.01 0 1.02 0 0 Z " fill="#1B254A" transform="translate(256,137)"/>
<path d="M0 0 C0.99 0 1.98 0 3 0 C3 0.99 3 1.98 3 3 C3.66 3 4.32 3 5 3 C5 5.31 5 7.62 5 10 C4.01 10 3.02 10 2 10 C1.34 6.7 0.68 3.4 0 0 Z " fill="#4A5589" transform="translate(207,261)"/>
<path d="M0 0 C1.65 0 3.3 0 5 0 C5 0.66 5 1.32 5 2 C0.62850344 5.66641647 -3.60258708 5.31749488 -9 5 C-9 4.34 -9 3.68 -9 3 C-6.03 3 -3.06 3 0 3 C0 2.01 0 1.02 0 0 Z " fill="#1A2138" transform="translate(291,311)"/>
<path d="M0 0 C2.64 0 5.28 0 8 0 C8 0.99 8 1.98 8 3 C5.03 3.66 2.06 4.32 -1 5 C-0.67 3.35 -0.34 1.7 0 0 Z " fill="#475189" transform="translate(288,296)"/>
<path d="M0 0 C0.99 0.33 1.98 0.66 3 1 C2.34 1 1.68 1 1 1 C1.33 1.99 1.66 2.98 2 4 C-0.31 5.98 -2.62 7.96 -5 10 C-5.99 9.34 -6.98 8.68 -8 8 C-7.34 8 -6.68 8 -6 8 C-6 7.34 -6 6.68 -6 6 C-5.01 6 -4.02 6 -3 6 C-2.67 5.01 -2.34 4.02 -2 3 C-1.34 3 -0.68 3 0 3 C0 2.01 0 1.02 0 0 Z " fill="#222740" transform="translate(317,292)"/>
<path d="M0 0 C1.70884005 1.62339805 3.37446717 3.29319053 5 5 C5 5.66 5 6.32 5 7 C5.9590625 7.433125 5.9590625 7.433125 6.9375 7.875 C9 9 9 9 10 11 C7.83125748 10.49396008 6.00032373 10.00016187 4 9 C4 8.34 4 7.68 4 7 C3.34 7 2.68 7 2 7 C2 6.34 2 5.68 2 5 C1.34 5 0.68 5 0 5 C0 3.35 0 1.7 0 0 Z " fill="#1B1D2D" transform="translate(208,254)"/>
<path d="M0 0 C0 5.94 0 11.88 0 18 C-0.33 18 -0.66 18 -1 18 C-1.19532961 16.2300132 -1.38098882 14.45895721 -1.5625 12.6875 C-1.66691406 11.70136719 -1.77132813 10.71523437 -1.87890625 9.69921875 C-2 7 -2 7 -1 4 C-2.65 4.33 -4.3 4.66 -6 5 C-6 4.34 -6 3.68 -6 3 C-5.01 3 -4.02 3 -3 3 C-3 2.34 -3 1.68 -3 1 C-1 0 -1 0 0 0 Z " fill="#475180" transform="translate(337,214)"/>
<path d="M0 0 C0.66 0.33 1.32 0.66 2 1 C0.64763423 3.93879484 -0.89942659 6.29232911 -3 8.75 C-3.515625 9.36359375 -4.03125 9.9771875 -4.5625 10.609375 C-6 12 -6 12 -8 12 C-8 11.01 -8 10.02 -8 9 C-7.34 9 -6.68 9 -6 9 C-6 8.01 -6 7.02 -6 6 C-5.01 6 -4.02 6 -3 6 C-3 5.01 -3 4.02 -3 3 C-2.01 3 -1.02 3 0 3 C0 2.01 0 1.02 0 0 Z " fill="#1F253D" transform="translate(323,142)"/>
<path d="M0 0 C0.33 0.66 0.66 1.32 1 2 C0.34 2 -0.32 2 -1 2 C-1 2.66 -1 3.32 -1 4 C-1.66 4 -2.32 4 -3 4 C-3.33 4.99 -3.66 5.98 -4 7 C-4.66 7 -5.32 7 -6 7 C-6 7.66 -6 8.32 -6 9 C-6.66 9 -7.32 9 -8 9 C-7.9375 6.75 -7.9375 6.75 -7 4 C-4.7691525 2.32150176 -2.52594094 1.24000737 0 0 Z " fill="#394077" transform="translate(191,159)"/>
<path d="M0 0 C1.34709162 0.87500817 2.67738986 1.77590933 4 2.6875 C4.7425 3.18636719 5.485 3.68523437 6.25 4.19921875 C8 6 8 6 8.25 8.70703125 C8.1675 9.46371094 8.085 10.22039062 8 11 C7.67 10.34 7.34 9.68 7 9 C6.34 9 5.68 9 5 9 C5 8.01 5 7.02 5 6 C4.01 6.33 3.02 6.66 2 7 C1.67 6.34 1.34 5.68 1 5 C1.33 4.34 1.66 3.68 2 3 C1.34 3 0.68 3 0 3 C0 2.01 0 1.02 0 0 Z " fill="#363C60" transform="translate(315,134)"/>
<path d="M0 0 C0.99 0.33 1.98 0.66 3 1 C3 1.66 3 2.32 3 3 C2.01 3 1.02 3 0 3 C0 3.99 0 4.98 0 6 C-0.66 6 -1.32 6 -2 6 C-2 6.66 -2 7.32 -2 8 C-2.99 8 -3.98 8 -5 8 C-5 7.01 -5 6.02 -5 5 C-4.34 5 -3.68 5 -3 5 C-3 4.01 -3 3.02 -3 2 C-2.01 2 -1.02 2 0 2 C0 1.34 0 0.68 0 0 Z " fill="#4B5288" transform="translate(200,148)"/>
<path d="M0 0 C6.93 0 13.86 0 21 0 C21 0.33 21 0.66 21 1 C15.06 1 9.12 1 3 1 C3 1.66 3 2.32 3 3 C1.68 2.67 0.36 2.34 -1 2 C-0.67 1.34 -0.34 0.68 0 0 Z " fill="#2E3563" transform="translate(249,150)"/>
<path d="M0 0 C0.66 0 1.32 0 2 0 C2 1.98 2 3.96 2 6 C1.34 6 0.68 6 0 6 C0 7.98 0 9.96 0 12 C-0.66 12 -1.32 12 -2 12 C-2.17835515 7.45194365 -1.99785435 4.1205746 0 0 Z " fill="#1A1D34" transform="translate(180,158)"/>
<path d="M0 0 C0.33 0.66 0.66 1.32 1 2 C3.52733235 2.65555119 3.52733235 2.65555119 6 3 C6 3.99 6 4.98 6 6 C4.35 6.33 2.7 6.66 1 7 C1 6.01 1 5.02 1 4 C0.34 4 -0.32 4 -1 4 C-0.67 2.68 -0.34 1.36 0 0 Z " fill="#1C202F" transform="translate(228,273)"/>
<path d="M0 0 C0.99 0.33 1.98 0.66 3 1 C1.8553125 1.8971875 1.8553125 1.8971875 0.6875 2.8125 C-1.93222548 4.8143414 -1.93222548 4.8143414 -3.5625 6.8125 C-4.036875 7.204375 -4.51125 7.59625 -5 8 C-7.1875 7.6875 -7.1875 7.6875 -9 7 C-8.01 7 -7.02 7 -6 7 C-6 6.01 -6 5.02 -6 4 C-5.01 4 -4.02 4 -3 4 C-3 3.34 -3 2.68 -3 2 C-2.01 2 -1.02 2 0 2 C0 1.34 0 0.68 0 0 Z " fill="#282E49" transform="translate(312,154)"/>
<path d="M0 0 C1.65 0 3.3 0 5 0 C4.67 0.99 4.34 1.98 4 3 C3.01 3 2.02 3 1 3 C1 3.66 1 4.32 1 5 C-0.98 5.99 -0.98 5.99 -3 7 C-3 5.68 -3 4.36 -3 3 C-2.01 3 -1.02 3 0 3 C0 2.01 0 1.02 0 0 Z " fill="#252F5B" transform="translate(203,148)"/>
<path d="M0 0 C0.33 0.99 0.66 1.98 1 3 C0.01 3 -0.98 3 -2 3 C-2 3.99 -2 4.98 -2 6 C-3.65 6 -5.3 6 -7 6 C-6.67 4.68 -6.34 3.36 -6 2 C-5.38125 1.855625 -4.7625 1.71125 -4.125 1.5625 C-1.96741678 1.06847775 -1.96741678 1.06847775 0 0 Z " fill="#6C76AD" transform="translate(222,136)"/>
<path d="M0 0 C4.34464536 0.60825035 8.67551867 1.26167392 13 2 C13 2.33 13 2.66 13 3 C8.71 3 4.42 3 0 3 C0 2.01 0 1.02 0 0 Z " fill="#1C2245" transform="translate(282,118)"/>
<path d="M0 0 C1.98 0 3.96 0 6 0 C6.33 1.32 6.66 2.64 7 4 C4.36 3.67 1.72 3.34 -1 3 C-0.67 2.01 -0.34 1.02 0 0 Z " fill="#6A76AA" transform="translate(245,295)"/>
<path d="M0 0 C0.33 0.66 0.66 1.32 1 2 C1.66 2 2.32 2 3 2 C3.33 1.34 3.66 0.68 4 0 C4 1.98 4 3.96 4 6 C4.66 6 5.32 6 6 6 C6 6.66 6 7.32 6 8 C5.01 8 4.02 8 3 8 C3 7.01 3 6.02 3 5 C2.01 4.67 1.02 4.34 0 4 C0 2.68 0 1.36 0 0 Z " fill="#293051" transform="translate(204,253)"/>
<path d="M0 0 C2.97 0 5.94 0 9 0 C9.33 0.99 9.66 1.98 10 3 C6.7 3 3.4 3 0 3 C0 2.01 0 1.02 0 0 Z " fill="#97A5D4" transform="translate(260,136)"/>
<path d="M0 0 C0.33 0.66 0.66 1.32 1 2 C3.52733235 2.65555119 3.52733235 2.65555119 6 3 C6 3.33 6 3.66 6 4 C3.03 4 0.06 4 -3 4 C-3 3.01 -3 2.02 -3 1 C-2.01 0.67 -1.02 0.34 0 0 Z " fill="#131D40" transform="translate(248,291)"/>
<path d="M0 0 C0.66 0 1.32 0 2 0 C2 0.66 2 1.32 2 2 C2.99 2.33 3.98 2.66 5 3 C6 6 6 6 5 9 C4.34 9 3.68 9 3 9 C3 7.02 3 5.04 3 3 C2.01 3 1.02 3 0 3 C0 2.01 0 1.02 0 0 Z " fill="#222A4B" transform="translate(210,261)"/>
<path d="M0 0 C0.66 0 1.32 0 2 0 C2.185625 0.9590625 2.185625 0.9590625 2.375 1.9375 C2.684375 2.9584375 2.684375 2.9584375 3 4 C3.66 4.33 4.32 4.66 5 5 C5 5.99 5 6.98 5 8 C4.01 8 3.02 8 2 8 C-0.1519437 4.77208445 -0.20086443 3.71599191 0 0 Z " fill="#434D7D" transform="translate(202,253)"/>
<path d="M0 0 C2.97 0.33 5.94 0.66 9 1 C6.3144406 3.6855594 3.62378672 4.06049974 0 5 C0 3.35 0 1.7 0 0 Z " fill="#262F57" transform="translate(229,136)"/>
<path d="M0 0 C0.99 0.33 1.98 0.66 3 1 C3 1.66 3 2.32 3 3 C2.34 3 1.68 3 1 3 C1 3.99 1 4.98 1 6 C0.34 6 -0.32 6 -1 6 C-1 6.66 -1 7.32 -1 8 C-1.66 7.67 -2.32 7.34 -3 7 C-2.38722388 4.03824877 -1.74627478 2.61941217 0 0 Z " fill="#25283F" transform="translate(251,234)"/>
<path d="M0 0 C0.99 0.99 1.98 1.98 3 3 C2.67 3.99 2.34 4.98 2 6 C2.66 6 3.32 6 4 6 C4 7.32 4 8.64 4 10 C3.01 10 2.02 10 1 10 C0.67 6.7 0.34 3.4 0 0 Z " fill="#242A4F" transform="translate(176,259)"/>
<path d="M0 0 C1.32 0.66 2.64 1.32 4 2 C3.34 2 2.68 2 2 2 C2 2.66 2 3.32 2 4 C1.01 4.495 1.01 4.495 0 5 C-1.13350534 7.01669827 -1.13350534 7.01669827 -2 9 C-2 6.69 -2 4.38 -2 2 C-1.34 2 -0.68 2 0 2 C0 1.34 0 0.68 0 0 Z " fill="#232845" transform="translate(184,154)"/>
<path d="M0 0 C2.64 0.99 5.28 1.98 8 3 C8 3.33 8 3.66 8 4 C5.03 4 2.06 4 -1 4 C-0.67 2.68 -0.34 1.36 0 0 Z " fill="#49507D" transform="translate(238,313)"/>
<path d="M0 0 C0.99 0 1.98 0 3 0 C3 0.99 3 1.98 3 3 C3.66 3 4.32 3 5 3 C4.67 4.32 4.34 5.64 4 7 C3.34 5.68 2.68 4.36 2 3 C1.34 3 0.68 3 0 3 C0 2.01 0 1.02 0 0 Z " fill="#6472A1" transform="translate(226,284)"/>
<path d="M0 0 C1.65 0 3.3 0 5 0 C5 0.66 5 1.32 5 2 C2.09399739 3.25664978 0.20395416 4 -3 4 C-3 3.34 -3 2.68 -3 2 C-2.01 2 -1.02 2 0 2 C0 1.34 0 0.68 0 0 Z " fill="#1B1E31" transform="translate(226,159)"/>
<path d="M0 0 C0.66 0 1.32 0 2 0 C1.67 1.65 1.34 3.3 1 5 C-0.98 5.33 -2.96 5.66 -5 6 C-5 5.34 -5 4.68 -5 4 C-3.35 3.34 -1.7 2.68 0 2 C0 1.34 0 0.68 0 0 Z " fill="#515A90" transform="translate(208,142)"/>
<path d="M0 0 C0.99 0 1.98 0 3 0 C3 0.66 3 1.32 3 2 C4.65 2 6.3 2 8 2 C8 2.33 8 2.66 8 3 C5.36 3.66 2.72 4.32 0 5 C-0.33 3.68 -0.66 2.36 -1 1 C-0.67 0.67 -0.34 0.34 0 0 Z " fill="#475183" transform="translate(212,140)"/>
<path d="M0 0 C2.97 0.495 2.97 0.495 6 1 C6.33 1.99 6.66 2.98 7 4 C4.69 3.67 2.38 3.34 0 3 C0 2.01 0 1.02 0 0 Z " fill="#3E4777" transform="translate(202,298)"/>
<path d="M0 0 C0 0.66 0 1.32 0 2 C-1.65 2 -3.3 2 -5 2 C-5 2.66 -5 3.32 -5 4 C-5.99 4 -6.98 4 -8 4 C-8 3.34 -8 2.68 -8 2 C-3.61016949 -1.20338983 -3.61016949 -1.20338983 0 0 Z " fill="#1D244E" transform="translate(304,291)"/>
<path d="M0 0 C0.33 0 0.66 0 1 0 C1 1.65 1 3.3 1 5 C0.34 5 -0.32 5 -1 5 C-1.33 5.99 -1.66 6.98 -2 8 C-2.66 8 -3.32 8 -4 8 C-2.66666667 5.33333333 -1.33333333 2.66666667 0 0 Z " fill="#292F54" transform="translate(324,282)"/>
<path d="M0 0 C1.32 0.33 2.64 0.66 4 1 C4 2.32 4 3.64 4 5 C4.66 5.33 5.32 5.66 6 6 C5.01 6 4.02 6 3 6 C3 5.01 3 4.02 3 3 C2.01 3 1.02 3 0 3 C0 2.01 0 1.02 0 0 Z " fill="#1D274D" transform="translate(220,276)"/>
<path d="M0 0 C0.33 0 0.66 0 1 0 C1 1.65 1 3.3 1 5 C1.66 5.33 2.32 5.66 3 6 C2.34 6 1.68 6 1 6 C0.67 6.99 0.34 7.98 0 9 C0 8.34 0 7.68 0 7 C-0.99 6.67 -1.98 6.34 -3 6 C-2.67 5.34 -2.34 4.68 -2 4 C-1.34 4.33 -0.68 4.66 0 5 C0 3.35 0 1.7 0 0 Z " fill="#3A4476" transform="translate(201,247)"/>
<path d="M0 0 C0.33 1.32 0.66 2.64 1 4 C0.34 4 -0.32 4 -1 4 C-1 4.66 -1 5.32 -1 6 C-1.99 6 -2.98 6 -4 6 C-2.25 1.125 -2.25 1.125 0 0 Z " fill="#3D467A" transform="translate(206,176)"/>
<path d="M0 0 C0.99 0.99 1.98 1.98 3 3 C2.67 3.99 2.34 4.98 2 6 C1.01 6 0.02 6 -1 6 C-0.67 4.02 -0.34 2.04 0 0 Z " fill="#6A75B3" transform="translate(302,152)"/>
<path d="M0 0 C1.65 0 3.3 0 5 0 C5 0.99 5 1.98 5 3 C5.99 3 6.98 3 8 3 C8 3.66 8 4.32 8 5 C4.20411134 4.45773019 2.52788007 2.79872437 0 0 Z " fill="#7E8ABC" transform="translate(290,121)"/>
<path d="" fill="#2D2D2D" transform="translate(0,0)"/>
</svg>
